<svg xmlns="http://www.w3.org/2000/svg" width="26" height="26" viewBox="0 0 26 26">
    <path fill="#FFF" d="M25.682 24.15l-7.393-7.393c1.432-1.77 2.294-4.017 2.294-6.465C20.583 4.617 15.966 0 10.292 0 4.617 0 0 4.617 0 10.292c0 5.674 4.617 10.291 10.292 10.291 2.448 0 4.696-.862 6.465-2.294l7.393 7.394c.212.21.489.317.766.317.278 0 .555-.106.766-.317.424-.424.424-1.109 0-1.532zm-15.39-5.733c-4.481 0-8.125-3.645-8.125-8.125 0-4.481 3.644-8.125 8.125-8.125 4.48 0 8.124 3.644 8.124 8.125 0 4.48-3.644 8.125-8.124 8.125z"/>
</svg>
