<svg xmlns="http://www.w3.org/2000/svg" width="41" height="41" viewBox="0 0 41 41">
    <g>
        <path d="M20.48 0C9.187 0 0 9.187 0 20.48v.683h12.486v-1.366H1.377C1.737 9.572 10.168 1.365 20.48 1.365c10.312 0 18.742 8.207 19.103 18.432H28.4v1.366h12.56v-.683C40.96 9.187 31.773 0 20.48 0z"/>
        <path d="M40.277 19.797H28.4c-.376 0-.682.306-.682.683 0 .377.306.683.682.683h11.183c-.36 10.225-8.791 18.432-19.103 18.432-10.312 0-18.742-8.207-19.103-18.432h11.388c.377 0 .682-.306.682-.683 0-.377-.305-.683-.682-.683H.683c-.377 0-.683.306-.683.683 0 11.293 9.187 20.48 20.48 20.48 11.293 0 20.48-9.187 20.48-20.48 0-.377-.306-.683-.683-.683z"/>
        <path d="M20.48 12.288c-4.517 0-8.192 3.675-8.192 8.192s3.675 8.192 8.192 8.192 8.192-3.675 8.192-8.192-3.675-8.192-8.192-8.192zm0 15.019c-3.764 0-6.827-3.063-6.827-6.827s3.063-6.827 6.827-6.827 6.827 3.063 6.827 6.827-3.063 6.827-6.827 6.827z"/>
        <path d="M20.48 15.019c-3.011 0-5.461 2.45-5.461 5.461s2.45 5.461 5.461 5.461 5.461-2.45 5.461-5.461-2.45-5.461-5.461-5.461zm0 9.557c-2.259 0-4.096-1.837-4.096-4.096 0-2.259 1.837-4.096 4.096-4.096 2.259 0 4.096 1.837 4.096 4.096 0 2.259-1.837 4.096-4.096 4.096z"/>
    </g>
</svg>
